<svg xmlns="http://www.w3.org/2000/svg" viewBox="0 0 44 34">
  <g fill="none" fill-rule="evenodd">
    <path fill="#1F458A" d="M.595 4.8025h42.6275v24.225H.595z"/>
    <path fill="#FFF" fill-rule="nonzero" d="M43.2225 4.7175H.4675v24.48H43.35v-24.48h-.1275zm.0425 24.395H.5525V4.76h42.755v24.3525h-.0425z"/>
    <path fill="#FFF" fill-rule="nonzero" d="M.5525 29.1125h42.755V4.76H.5525v24.3525zm.0425-24.31h42.6275v24.225H.595V4.8025z"/>
    <path fill="#FFF" d="M26.9875 14.0675c.5525-.7225 1.0625-2.4225.2125-3.655a3.825 3.825 0 0 0-2.3375-1.445c-2.465-.5525-5.015.2125-7.1825 1.4025-1.87.9775-3.74 2.3375-4.9725 4.1225a6.1285 6.1285 0 0 0-.9775 2.125 6.4303 6.4303 0 0 0-.17 2.55c.6375 4.505 5.4825 6.1625 9.3075 5.9925a16.4815 16.4815 0 0 0 7.565-2.125 14.6285 14.6285 0 0 0 5.3125-4.8875c.0425-.085.51-.8925.68-.765.17.1275-.2975.8925-.3825.9775A18.632 18.632 0 0 1 28.9 23.8425a17.0637 17.0637 0 0 1-7.31 2.89 13.3535 13.3535 0 0 1-6.715-.6375 7.1528 7.1528 0 0 1-4.08-3.8675 7.395 7.395 0 0 1 .1275-5.3125 16.3583 16.3583 0 0 1 10.0725-9.35c1.9975-.6375 4.8025-1.02 6.5875.425 2.1675 1.7 1.2325 4.675-.595 6.0775"/>
    <path fill="#FDCB0E" d="M22.015 11.5175l.595-.425h-.7225l-.2125-.68-.255.68h-.68l.5525.425-.2125.68.595-.425.5525.425zM24.99 12.2825l.5525-.3825H24.82l-.2125-.68-.2125.68h-.7225l.5525.3825-.17.68.5525-.3825.5525.3825zM27.115 14.4925l.595-.425h-.7225l-.2125-.68-.2125.68H25.84l.595.425-.255.68.595-.425.595.425zM27.9225 17.4675l.5525-.425h-.68l-.255-.68-.2125.68h-.7225l.595.425-.2125.68.5525-.425.595.425zM27.115 20.4425l.595-.425h-.7225l-.2125-.68-.255.68h-.68l.595.425-.255.68.595-.425.595.425zM24.99 22.5675l.5525-.3825H24.82l-.2125-.68-.2125.68h-.7225l.5525.3825-.17.7225.5525-.425.5525.425zM22.015 23.375l.595-.3825h-.7225l-.2125-.68-.255.68h-.68l.5525.3825-.2125.68.595-.425.5525.425zM19.04 22.5675l.595-.3825h-.7225l-.2125-.68-.2125.68h-.7225l.595.3825-.255.7225.595-.425.595.425zM16.915 20.4425l.5525-.425h-.7225l-.2125-.68-.2125.68h-.7225l.595.425-.2125.68.5525-.425.595.425zM16.1075 17.4675l.5525-.425h-.68l-.255-.68-.17.68h-.7225l.5525.425-.2125.68.5525-.425.595.425zM16.915 14.4925l.5525-.425h-.7225l-.2125-.68-.2125.68h-.7225l.595.425-.2125.68.5525-.425.595.425zM19.04 12.2825l.595-.3825h-.7225l-.2125-.68-.2125.68h-.7225l.595.3825-.255.68.595-.3825.595.3825z"/>
    <path fill="#FFF" d="M26.435 14.4925a8.5808 8.5808 0 0 1-3.7825 2.4225 8.976 8.976 0 0 1-3.06.5525l.7225-1.445c2.295.0425 5.2275-.8075 6.12-1.53M1.7425 33.575a1.2197 1.2197 0 0 1-.9775-.3825 1.5895 1.5895 0 0 1-.34-1.0625 1.4153 1.4153 0 0 1 .3825-1.0625 1.275 1.275 0 0 1 1.02-.3825c.3015.0064.6012.0492.8925.1275v.3825a3.247 3.247 0 0 0-.8925-.2125 1.0243 1.0243 0 0 0-.7225.2975 1.275 1.275 0 0 0-.255.85 1.1518 1.1518 0 0 0 .255.8075.8755.8755 0 0 0 .7225.2975 2.2695 2.2695 0 0 0 .85-.2125v.34a2.6817 2.6817 0 0 1-.935.2125z"/>
    <path fill="#FFF" fill-rule="nonzero" d="M4.2075 33.575a1.1857 1.1857 0 0 1-.935-.3825 1.8318 1.8318 0 0 1 0-2.125 1.1857 1.1857 0 0 1 .935-.3825c.3531-.0183.696.122.935.3825A1.7 1.7 0 0 1 5.525 32.13a1.4153 1.4153 0 0 1-.3825 1.0625 1.0752 1.0752 0 0 1-.935.3825zm.0425-.255a.7692.7692 0 0 0 .6375-.2975 1.8063 1.8063 0 0 0 0-1.7.765.765 0 0 0-.6375-.2975.85.85 0 0 0-.6375.2975 1.8063 1.8063 0 0 0 0 1.7.85.85 0 0 0 .6375.2975z"/>
    <path fill="#FFF" d="M6.3325 33.49v-2.72h.3825l1.4025 2.125V30.77h.34v2.7625H8.075l-1.4025-2.125v2.125l-.34-.0425zM9.775 33.575a2.5882 2.5882 0 0 1-.7225-.1275v-.3825c.2391.119.4988.191.765.2125A.595.595 0 0 0 10.2 33.15a.459.459 0 0 0 .1275-.2975.7862.7862 0 0 0-.085-.2975.7777.7777 0 0 0-.34-.255l-.2125-.1275a2.6477 2.6477 0 0 1-.51-.3825.7182.7182 0 0 1-.1275-.425.7055.7055 0 0 1 .2125-.51.85.85 0 0 1 .595-.2125c.2325.001.4629.0443.68.1275v.3825a1.751 1.751 0 0 0-.6375-.17.4845.4845 0 0 0-.34.1275.3867.3867 0 0 0-.1275.2975.6035.6035 0 0 0 .085.255c.12.0957.248.181.3825.255l.2125.1275c.1848.1065.356.235.51.3825a.7182.7182 0 0 1 .1275.425.6843.6843 0 0 1-.255.5525 1.6448 1.6448 0 0 1-.7225.17zM11.5175 33.49v-2.72H13.09v.2975h-1.1475v.8925h.9775v.2975h-.9775v.9775h1.2325v.2975c-.0425-.0425-1.6575-.0425-1.6575-.0425zM13.77 33.49v-2.72h.3825v2.7625L13.77 33.49zM15.0875 33.49v-2.72h.3825v2.465h1.2325v.2975l-1.615-.0425z"/>
    <path fill="#FFF" fill-rule="nonzero" d="M18.7 33.49v-2.72h.935c.2294-.001.458.0275.68.085.1737.0679.3325.169.4675.2975a1.275 1.275 0 0 1 .2975.8925 1.4152 1.4152 0 0 1-.3825 1.0625 1.377 1.377 0 0 1-1.02.3825H18.7zm.3825-.255h.51c.3825 0 .6375-.085.765-.2975a1.224 1.224 0 0 0 .255-.8075 1.4662 1.4662 0 0 0-.2125-.765.425.425 0 0 0-.34-.2125 2.2567 2.2567 0 0 0-.595-.0425h-.2975v2.1675l-.085-.0425z"/>
    <path fill="#FFF" d="M21.59 33.49v-2.72h1.5725v.2975H22.015v.8925h.9775v.2975h-.9775v.9775h1.2325v.2975c0-.0425-1.6575-.0425-1.6575-.0425zM25.2025 33.49v-2.72h.3825v2.465h1.2325v.2975l-1.615-.0425zM27.4975 31.62v-.1275c.0425-.0425.1275-.0425.1275-.1275 0-.085.0425-.17.0425-.2975v-.0425h-.17v-.4675h.4675v.3825a.6842.6842 0 0 1-.1275.4675.425.425 0 0 1-.34.2125zM28.7725 33.49v-2.72h1.5725v.2975h-1.1475v.8925h.9775v.2975h-.9775v.9775H30.43v.2975c0-.0425-1.6575-.0425-1.6575-.0425zM31.0675 30.77h.3825v1.7425c-.0185.2067.026.414.1275.595a.6077.6077 0 0 0 .4675.2125.5313.5313 0 0 0 .4675-.17c.1015-.181.146-.3883.1275-.595v-1.7425h.34v1.7425a1.3132 1.3132 0 0 1-.2125.8075.935.935 0 0 1-.7225.255 1.037 1.037 0 0 1-.765-.255 1.1517 1.1517 0 0 1-.255-.8075c.0425-.0425.0425-1.785.0425-1.785z"/>
    <path fill="#FFF" fill-rule="nonzero" d="M33.66 33.49v-2.72h.85a1.0243 1.0243 0 0 1 .6375.17.7055.7055 0 0 1 .2125.51.8712.8712 0 0 1-.5525.8075l.935 1.275h-.4675l-.8075-1.1475h-.3825v1.1475l-.425-.0425zm.3825-1.445h.1275c.4675 0 .7225-.2125.7225-.5525 0-.34-.2125-.425-.6375-.425H34l.0425.9775zM37.3575 33.575a1.1857 1.1857 0 0 1-.935-.3825 1.8317 1.8317 0 0 1 0-2.125c.5191-.5097 1.3509-.5097 1.87 0a1.7 1.7 0 0 1 .3825 1.0625 1.4152 1.4152 0 0 1-.3825 1.0625 1.1305 1.1305 0 0 1-.935.3825zm0-.255a.7692.7692 0 0 0 .6375-.2975 1.8063 1.8063 0 0 0 0-1.7.765.765 0 0 0-.6375-.2975.85.85 0 0 0-.6375.2975 1.8063 1.8063 0 0 0 0 1.7.9053.9053 0 0 0 .6375.2975zM39.44 33.49v-2.72h.765c.253-.026.5075.034.7225.17a.7353.7353 0 0 1 .2125.5525.9265.9265 0 0 1-.2975.68 1.224 1.224 0 0 1-.8075.255h-.17v1.105l-.425-.0425zm.3825-1.36h.17a.782.782 0 0 0 .5525-.17.6077.6077 0 0 0 .2125-.4675c0-.17-.0425-.2975-.1275-.34a1.275 1.275 0 0 0-.51-.1275h-.255l-.0425 1.105z"/>
    <path fill="#FFF" d="M41.735 33.49v-2.72h1.5725v.2975H42.16v.8925h.9775v.2975H42.16v.9775h1.2325v.2975c0-.0425-1.6575-.0425-1.6575-.0425zM1.7425 3.315a1.2197 1.2197 0 0 1-.9775-.3825A1.5895 1.5895 0 0 1 .425 1.87 1.4152 1.4152 0 0 1 .8075.8075a1.275 1.275 0 0 1 1.02-.3825c.3015.0064.6012.0492.8925.1275V.935a3.247 3.247 0 0 0-.8925-.2125 1.0243 1.0243 0 0 0-.7225.2975 1.275 1.275 0 0 0-.255.85 1.1517 1.1517 0 0 0 .255.8075.8755.8755 0 0 0 .7225.2975 2.2695 2.2695 0 0 0 .85-.2125v.34a2.6818 2.6818 0 0 1-.935.2125z"/>
    <path fill="#FFF" fill-rule="nonzero" d="M4.3775 3.315a1.1858 1.1858 0 0 1-.935-.3825 1.6745 1.6745 0 0 1-.34-1.0625 1.6745 1.6745 0 0 1 .34-1.0625 1.1857 1.1857 0 0 1 .935-.3825c.3531-.0183.696.122.935.3825A1.7 1.7 0 0 1 5.695 1.87a1.4152 1.4152 0 0 1-.3825 1.0625 1.1305 1.1305 0 0 1-.935.3825zm0-.2975A.7692.7692 0 0 0 5.015 2.72a1.564 1.564 0 0 0 .2125-.85 1.564 1.564 0 0 0-.2125-.85.765.765 0 0 0-.6375-.2975.85.85 0 0 0-.6375.2975 1.564 1.564 0 0 0-.2125.85 1.564 1.564 0 0 0 .2125.85.765.765 0 0 0 .6375.2975z"/>
    <path fill="#FFF" d="M6.5875.51H6.97v1.7425c-.0185.2067.026.414.1275.595a.6078.6078 0 0 0 .4675.2125.5312.5312 0 0 0 .4675-.17c.1015-.181.146-.3883.1275-.595V.5525h.34V2.295a1.3133 1.3133 0 0 1-.2125.8075.7777.7777 0 0 1-.7225.2975 1.037 1.037 0 0 1-.765-.255 1.1517 1.1517 0 0 1-.255-.8075L6.5875.51zM9.3925 3.23V.4675h.3825l1.4025 2.125V.4675h.34V3.23h-.3825L9.7325 1.105V3.23zM13.6 3.315a1.2198 1.2198 0 0 1-.9775-.3825 1.5895 1.5895 0 0 1-.34-1.0625A1.4152 1.4152 0 0 1 12.665.8075a1.275 1.275 0 0 1 1.02-.3825c.3015.0064.6012.0492.8925.1275V.935a3.8505 3.8505 0 0 0-.935-.2125 1.0243 1.0243 0 0 0-.7225.2975 1.275 1.275 0 0 0-.255.85 1.1517 1.1517 0 0 0 .255.8075.8755.8755 0 0 0 .7225.2975 2.2695 2.2695 0 0 0 .85-.2125v.34a1.9762 1.9762 0 0 1-.8925.2125zM15.13 3.23V.4675h.425V3.23zM16.66 3.23V.4675h.3825v2.465h1.2325V3.23z"/>
    <path fill="#FFF" fill-rule="nonzero" d="M21.675 3.315a1.1858 1.1858 0 0 1-.935-.3825A1.6745 1.6745 0 0 1 20.4 1.87a1.6745 1.6745 0 0 1 .34-1.0625c.5191-.5097 1.3509-.5097 1.87 0a1.7 1.7 0 0 1 .3825 1.0625 1.4152 1.4152 0 0 1-.3825 1.0625 1.1305 1.1305 0 0 1-.935.3825zm0-.2975a.7692.7692 0 0 0 .6375-.2975 1.564 1.564 0 0 0 .2125-.85 1.564 1.564 0 0 0-.2125-.85.765.765 0 0 0-.6375-.2975.85.85 0 0 0-.6375.2975 1.564 1.564 0 0 0-.2125.85 1.564 1.564 0 0 0 .2125.85.765.765 0 0 0 .6375.2975z"/>
    <path fill="#FFF" d="M23.9275 3.23V.4675H25.5V.765h-1.1475v.8925h.9775v.2975h-.9775v1.2325zM27.8375 3.23V.4675H29.41V.765h-1.1475v.8925h.9775v.2975h-.9775v.9775h1.2325V3.23zM30.2175.51H30.6v1.7425c-.0185.2067.026.414.1275.595a.6077.6077 0 0 0 .4675.2125.5313.5313 0 0 0 .4675-.17c.1015-.181.146-.3883.1275-.595V.5525h.34V2.295a1.3132 1.3132 0 0 1-.2125.8075.935.935 0 0 1-.7225.255 1.037 1.037 0 0 1-.765-.255 1.1517 1.1517 0 0 1-.255-.8075c.0425-.085.0425-1.785.0425-1.785z"/>
    <path fill="#FFF" fill-rule="nonzero" d="M32.98 3.23V.4675h.85a1.0242 1.0242 0 0 1 .6375.17.7055.7055 0 0 1 .2125.51.8712.8712 0 0 1-.5525.8075l.935 1.275h-.4675l-.8075-1.1475h-.3825V3.23h-.425zm.3825-1.445h.1275c.4675 0 .7225-.2125.7225-.5525 0-.34-.2125-.425-.6375-.425h-.255c.0354.3246.0496.651.0425.9775zM36.8475 3.315a1.1858 1.1858 0 0 1-.935-.3825 1.6745 1.6745 0 0 1-.34-1.0625 1.6745 1.6745 0 0 1 .34-1.0625c.5191-.5097 1.3509-.5097 1.87 0A1.7 1.7 0 0 1 38.165 1.87a1.4152 1.4152 0 0 1-.3825 1.0625 1.1305 1.1305 0 0 1-.935.3825zm0-.2975a.7692.7692 0 0 0 .6375-.2975 1.564 1.564 0 0 0 .2125-.85 1.564 1.564 0 0 0-.2125-.85.765.765 0 0 0-.6375-.2975.85.85 0 0 0-.6375.2975 1.564 1.564 0 0 0-.2125.85 1.564 1.564 0 0 0 .2125.85.765.765 0 0 0 .6375.2975zM39.1 3.23V.4675h.765c.253-.026.5075.034.7225.17A.7353.7353 0 0 1 40.8 1.19a.9265.9265 0 0 1-.2975.68 1.224 1.224 0 0 1-.8075.255h-.17V3.23H39.1zm.3825-1.36h.17a.782.782 0 0 0 .5525-.17.6077.6077 0 0 0 .2125-.4675c0-.17-.0425-.2975-.1275-.34a1.275 1.275 0 0 0-.51-.1275h-.255l-.0425 1.105z"/>
    <path fill="#FFF" d="M41.5225 3.23V.4675h1.5725V.765h-1.19v.8925h.9775v.2975h-.9775v.9775h1.2325V3.23z"/>
  </g>
</svg>
