<svg xmlns="http://www.w3.org/2000/svg" viewBox="0 0 220 83">
  <path fill="#FFF" d="M2.28 77.26a.87.87 0 0 1-.91.97.87.87 0 0 1-.91-.97v-13a.87.87 0 0 1 .9-.95.87.87 0 0 1 .92.97v12.98zm1.97-9.28a.87.87 0 0 1 .91-.97.87.87 0 0 1 .91.97v.43l.05.04a3.75 3.75 0 0 1 3.03-1.44c1.69 0 3.81 1.07 3.81 4.16v6.09a.91.91 0 0 1-1.82 0v-5.99c0-1.91-1.34-2.7-2.54-2.7s-2.53.79-2.53 2.7v5.99a.87.87 0 0 1-.91.97.87.87 0 0 1-.91-.97v-9.28zm11.26-3.22a.91.91 0 0 1 1.82 0v2.37h.74c.6 0 .91.3.91.78 0 .5-.3.79-.9.79h-.77v8.56a.91.91 0 0 1-1.82 0V68.7h-.72c-.6 0-.91-.29-.91-.79s.3-.78.9-.78h.75v-2.37zm5.52 8.57c0 1.88 1.2 3.34 3.24 3.34 2.42 0 3.04-1.48 3.72-1.48a.72.72 0 0 1 .66.8c0 .89-2.25 2.25-4.4 2.25-3.5 0-5-2.7-5-5.6 0-2.91 1.83-5.63 4.9-5.63 2.98 0 4.71 2.7 4.71 5.34 0 .64-.22.97-1 .97l-6.83.01zm6.03-1.36c0-1.57-.92-3.39-2.91-3.39-2.25-.08-3.05 1.72-3.12 3.39h6.03zm3.13-4a.91.91 0 0 1 1.83 0v.92h.04c.41-.85 1.42-1.9 2.47-1.9a.91.91 0 0 1 1.01.9c0 .52-.37.86-1.13 1-1.07.18-2.4 1-2.4 3.11v5.22a.91.91 0 0 1-1.82 0v-9.24zm6.08 0a.91.91 0 0 1 1.83 0v.44l.04.04a3.75 3.75 0 0 1 3.03-1.44c1.69 0 3.81 1.07 3.81 4.16v6.09a.91.91 0 0 1-1.82 0v-5.99c0-1.91-1.34-2.7-2.54-2.7s-2.53.79-2.53 2.7v5.99a.91.91 0 1 1-1.82 0v-9.28zm19.75 9.37a.84.84 0 0 1-.84.89.83.83 0 0 1-.85-.89v-.76h-.04a3.54 3.54 0 0 1-2.99 1.65c-3.1 0-4.83-2.7-4.83-5.61 0-2.9 1.74-5.61 4.83-5.61 1.17 0 2.27.54 2.99 1.46h.04v-.58a.83.83 0 0 1 .85-.88.84.84 0 0 1 .84.88v9.45zm-4.72-.68c2.23 0 3.01-2.19 3.01-4.04 0-1.86-.78-4.05-3-4.05-2.24 0-3.02 2.19-3.02 4.05 0 1.86.8 4.04 3.02 4.04zm7.29-11.9a.91.91 0 1 1 1.82 0v2.37h.74c.6 0 .91.3.91.78 0 .5-.3.79-.9.79h-.75v8.56a.91.91 0 0 1-1.82 0V68.7h-.74c-.6 0-.91-.29-.91-.79s.3-.78.9-.78h.75v-2.37zm5.28-1.45a1.12 1.12 0 1 1 0 2.23 1.12 1.12 0 0 1 0-2.23zm.9 13.96a.91.91 0 0 1-1.81 0v-9.3a.91.91 0 0 1 1.82 0v9.3zm6.34-10.26c3.09 0 4.82 2.7 4.82 5.6 0 2.92-1.73 5.62-4.82 5.62-3.1 0-4.83-2.7-4.83-5.61 0-2.9 1.73-5.61 4.83-5.61zm0 9.65c2.22 0 3-2.19 3-4.04 0-1.86-.78-4.05-3-4.05-2.23 0-3.01 2.19-3.01 4.05 0 1.86.78 4.04 3 4.04zm6.32-8.68a.91.91 0 0 1 1.82 0v.43l.05.04a3.77 3.77 0 0 1 3.03-1.44c1.69 0 3.82 1.07 3.82 4.16v6.09a.91.91 0 0 1-1.83 0v-5.99c0-1.91-1.33-2.7-2.53-2.7-1.2 0-2.54.79-2.54 2.7v5.99a.91.91 0 0 1-1.82 0v-9.28zm19.76 9.36a.84.84 0 0 1-.84.89.83.83 0 0 1-.85-.89v-.76h-.04a3.54 3.54 0 0 1-3 1.65c-3.08 0-4.82-2.7-4.82-5.61 0-2.9 1.74-5.61 4.83-5.61 1.17 0 2.27.54 3 1.46h.03v-.58a.83.83 0 0 1 .85-.88.84.84 0 0 1 .84.88v9.45zm-4.73-.68c2.24 0 3.02-2.19 3.02-4.04 0-1.86-.78-4.05-3.02-4.05-2.23 0-3 2.19-3 4.05 0 1.86.78 4.04 3 4.04zm8.53.6a.91.91 0 1 1-1.83 0V63.13a.91.91 0 1 1 1.83 0v14.13zm13.2-13.24a.96.96 0 0 1 1.85 0l3.38 11.84h.05l1.91-11.73a.91.91 0 0 1 1-.85.8.8 0 0 1 .82.83c0 .3-.04.6-.1.9L120.87 77c-.13.64-.4 1.2-1.3 1.2-.7 0-1.13-.19-1.43-1.2l-3-10.77h-.05l-3 10.77c-.3 1.01-.73 1.2-1.43 1.2-.91 0-1.17-.56-1.3-1.2l-2.23-11.98c-.06-.3-.1-.6-.1-.91a.8.8 0 0 1 .82-.83.91.91 0 0 1 1 .85l1.91 11.73h.04l3.39-11.84zM128.48 67c3.1 0 4.83 2.7 4.83 5.6 0 2.92-1.73 5.62-4.83 5.62s-4.82-2.7-4.82-5.61c0-2.9 1.73-5.61 4.82-5.61zm0 9.65c2.23 0 3.01-2.19 3.01-4.04 0-1.86-.78-4.05-3.01-4.05-2.23 0-3.01 2.19-3.01 4.05 0 1.86.78 4.04 3 4.04zm12.83-5.55c0-1.57-.87-2.54-2.35-2.54-1.49 0-2.33.97-2.33 2.54v6.15a.91.91 0 1 1-1.82 0v-9.28a.91.91 0 0 1 1.82 0v.34l.04.05a3.11 3.11 0 0 1 2.76-1.35c1.27 0 2.44.72 3.01 1.86.8-1.15 1.78-1.86 3.37-1.86 1.69 0 3.8 1.08 3.8 4.17v6.08a.91.91 0 1 1-1.81 0v-6.16c0-1.57-.87-2.54-2.35-2.54-1.49 0-2.34.97-2.34 2.54v6.15a.91.91 0 0 1-1.82 0l.02-6.15zm11.44 2.22c0 1.88 1.2 3.34 3.24 3.34 2.41 0 3.03-1.48 3.71-1.48a.72.72 0 0 1 .66.8c0 .89-2.25 2.25-4.4 2.25-3.5 0-5-2.7-5-5.6 0-2.91 1.85-5.62 4.93-5.62 2.98 0 4.72 2.7 4.72 5.34 0 .64-.23.97-1.01.97h-6.85zm6.02-1.36c0-1.57-.9-3.39-2.9-3.39-2.25-.08-3.05 1.72-3.12 3.39h6.02zm3.14-4a.91.91 0 0 1 1.82 0v.44l.04.04a3.75 3.75 0 0 1 3.03-1.44c1.7 0 3.82 1.07 3.82 4.16v6.09a.91.91 0 1 1-1.83 0v-5.99c0-1.91-1.34-2.7-2.53-2.7-1.2 0-2.54.79-2.54 2.7v5.99a.91.91 0 0 1-1.82 0v-9.28zm11.38-3.91c.2-.4.46-.77.97-.77a.8.8 0 0 1 .82.79c0 .27-.08.53-.22.76l-1.16 2.28c-.2.4-.43.76-.97.76a.8.8 0 0 1-.82-.78c.01-.27.09-.53.23-.76l1.15-2.28zm5.45 2.95c1.5 0 3.64.8 3.64 1.94a.74.74 0 0 1-.82.74c-.79 0-1.1-1.12-2.83-1.12-1.03 0-1.91.46-1.91 1.37 0 1.92 5.85 1.7 5.85 4.89 0 2.27-1.96 3.38-4 3.38-2.31 0-4.1-1.16-4.1-2.08a.77.77 0 0 1 .74-.83c.8 0 1.47 1.34 3.45 1.34 1.32 0 2.12-.74 2.12-1.48 0-2.15-5.85-2.03-5.85-5.08-.02-2 1.87-3.07 3.7-3.07zm10.1-2.6a.91.91 0 0 1 .97-1h3.57c4.37 0 6.51 3.4 6.51 7.27 0 4.4-2.32 7.42-6.26 7.42h-3.82a.91.91 0 0 1-.97-.99v-12.7zm1.82 12.13h2.6c3.42 0 4.7-2.87 4.7-5.86 0-3-1.36-5.7-4.82-5.7h-2.48v11.56zm19.73.8a.84.84 0 0 1-.84.89.83.83 0 0 1-.85-.89v-.76h-.04a3.54 3.54 0 0 1-2.99 1.65c-3.1 0-4.83-2.7-4.83-5.61 0-2.9 1.74-5.61 4.83-5.61 1.17 0 2.27.54 2.99 1.46h.04v-.58a.83.83 0 0 1 .85-.88.84.84 0 0 1 .84.88v9.45zm-4.72-.68c2.23 0 3.01-2.19 3.01-4.04 0-1.86-.78-4.05-3.01-4.05-2.23 0-3.01 2.19-3.01 4.05 0 1.86.78 4.04 3.01 4.04zm6.1-7.88a3.22 3.22 0 0 1-.24-1.01.8.8 0 0 1 .82-.77c.43 0 .8.28.91.69l2.52 7.52h.04l2.48-7.52c.09-.4.45-.69.86-.69a.8.8 0 0 1 .83.77c-.03.35-.11.69-.25 1l-4.58 13.1c-.1.4-.47.69-.89.68a.8.8 0 0 1-.82-.76c.03-.35.12-.7.27-1l1.15-3.08-3.1-8.93zM100.48 31.23a13.46 13.46 0 0 1 16.75-20.78V5.73c0-.45.37-.81.83-.82h5.24A21.48 21.48 0 0 0 94.7 36.79l.23.23 5.67-5.66-.1-.13zm26.9-22.2l1.4-1.4c.14-.18.21-.4.19-.63a.87.87 0 0 0-.86-.79h-8.75a.84.84 0 0 0-.82.83v8.74c.02.45.36.81.8.86.23.01.46-.08.64-.24l1.63-1.64a13.4 13.4 0 0 1-.55 15.16l1.53 1.27 1.3-1.58a.84.84 0 1 1 1.3 1.08l-1.3 1.58.84.69a.84.84 0 1 1-1.08 1.3l-.84-.7-1.2 1.43a.84.84 0 0 1-1.18.1.84.84 0 0 1-.11-1.18l1.18-1.42-1.54-1.28a13.44 13.44 0 0 1-18.12 1.26l-5.7 5.7a21.47 21.47 0 0 0 31.24-29.13z"/>
</svg>
