<svg xmlns="http://www.w3.org/2000/svg" viewBox="0 0 247.98 212.58">
  <path fill="#fff" d="M18 153a1.92 1.92 0 0 1-2 2.13 1.92 1.92 0 0 1-2-2.13v-28.58a1.91 1.91 0 0 1 2-2.12 1.91 1.91 0 0 1 2 2.12zm4.35-20.43a2 2 0 1 1 4 0v1l.09.1a8.21 8.21 0 0 1 6.65-3.17c3.72 0 8.38 2.35 8.38 9.14V153a2 2 0 1 1-4 0v-13.18c0-4.21-2.94-5.93-5.56-5.93s-5.57 1.72-5.57 5.93V153a2 2 0 1 1-4 0zm24.72-7.06a2 2 0 1 1 4 0v5.21h1.63c1.31 0 2 .63 2 1.72s-.68 1.72-2 1.72h-1.64V153a2 2 0 1 1-4 0v-18.84h-1.62c-1.31 0-2-.64-2-1.72s.68-1.72 2-1.72h1.63zm12.14 18.79c0 4.12 2.62 7.34 7.1 7.34 5.3 0 6.66-3.26 8.15-3.26a1.58 1.58 0 0 1 1.45 1.76c0 2-4.93 4.94-9.64 4.94-7.7 0-11-5.93-11-12.32S59.3 130.45 66 130.45c6.57 0 10.37 5.93 10.37 11.72 0 1.41-.5 2.13-2.22 2.13zm13.22-3c0-3.44-2-7.42-6.39-7.42-4.93-.18-6.7 3.76-6.83 7.42zm6.88-8.73a2 2 0 1 1 4 0v2h.09c.91-1.86 3.13-4.16 5.44-4.16a2 2 0 0 1 2.21 2c0 1.14-.81 1.86-2.49 2.18-2.35.4-5.25 2.17-5.25 6.83V153a2 2 0 1 1-4 0zm13.35 0a2 2 0 1 1 4 0v1l.09.1a8.21 8.21 0 0 1 6.65-3.17c3.72 0 8.38 2.35 8.38 9.14V153a2 2 0 1 1-4 0v-13.18c0-4.21-3-5.93-5.57-5.93s-5.57 1.72-5.57 5.93V153a2 2 0 1 1-4 0zM136 153.13a1.85 1.85 0 0 1-1.86 2 1.83 1.83 0 0 1-1.86-2v-1.68h-.09a7.79 7.79 0 0 1-6.56 3.63c-6.79 0-10.6-5.93-10.6-12.32s3.81-12.31 10.6-12.31a8.38 8.38 0 0 1 6.56 3.21h.09v-1.27a1.82 1.82 0 0 1 1.86-1.94 1.85 1.85 0 0 1 1.86 1.94zm-10.37-1.49c4.89 0 6.61-4.8 6.61-8.88s-1.72-8.87-6.61-8.87-6.61 4.8-6.61 8.87 1.76 8.88 6.65 8.88zm16.02-26.13a2 2 0 1 1 4 0v5.21h1.62c1.32 0 2 .63 2 1.72s-.68 1.72-2 1.72h-1.62V153a2 2 0 1 1-4 0v-18.84H140c-1.31 0-2-.64-2-1.72s.68-1.72 2-1.72h1.63zm11.59-3.21a2.45 2.45 0 1 1-2.44 2.44 2.43 2.43 0 0 1 2.44-2.44zm2 30.65a2 2 0 1 1-4 0v-20.38a2 2 0 1 1 4 0zm13.89-22.5c6.79 0 10.6 5.93 10.6 12.31s-3.81 12.32-10.6 12.32-10.59-5.93-10.59-12.32 3.8-12.31 10.59-12.31zm0 21.19c4.89 0 6.61-4.8 6.61-8.88s-1.72-8.87-6.61-8.87-6.61 4.8-6.61 8.87 1.72 8.88 6.61 8.88zM183 132.57a2 2 0 1 1 4 0v1l.09.1a8.21 8.21 0 0 1 6.65-3.17c3.72 0 8.38 2.35 8.38 9.14V153a2 2 0 1 1-4 0v-13.18c0-4.21-2.94-5.93-5.57-5.93s-5.56 1.72-5.56 5.93V153a2 2 0 1 1-4 0zm43.4 20.56a1.85 1.85 0 0 1-1.85 2 1.83 1.83 0 0 1-1.86-2v-1.68h-.09a7.79 7.79 0 0 1-6.56 3.63c-6.8 0-10.6-5.93-10.6-12.32s3.8-12.31 10.6-12.31a8.4 8.4 0 0 1 6.56 3.21h.09v-1.27a1.82 1.82 0 0 1 1.86-1.94 1.84 1.84 0 0 1 1.85 1.94zm-10.4-1.49c4.89 0 6.61-4.8 6.61-8.88s-1.72-8.87-6.61-8.87-6.61 4.8-6.61 8.87 1.76 8.88 6.61 8.88zm18.73 1.36a2 2 0 1 1-4 0v-31a2 2 0 1 1 4 0zM15.71 171.88a1.88 1.88 0 0 1 2-1.58 1.89 1.89 0 0 1 2 1.58l7.42 26h.09l4.21-25.76a2 2 0 0 1 2.18-1.85 1.73 1.73 0 0 1 1.81 1.81 10.72 10.72 0 0 1-.23 2l-4.89 26.3c-.27 1.4-.86 2.63-2.85 2.63-1.54 0-2.49-.41-3.13-2.63l-6.61-23.63h-.01l-6.61 23.63c-.63 2.22-1.58 2.63-3.12 2.63-2 0-2.58-1.23-2.85-2.63L.23 174.15a10 10 0 0 1-.23-2 1.73 1.73 0 0 1 1.81-1.81A2 2 0 0 1 4 172.15l4.2 25.76h.09zm31.39 6.57c6.79 0 10.59 5.93 10.59 12.31s-3.8 12.32-10.59 12.32-10.6-5.93-10.6-12.32 3.8-12.31 10.6-12.31zm0 21.19c4.89 0 6.61-4.8 6.61-8.88s-1.72-8.87-6.61-8.87-6.61 4.8-6.61 8.87 1.72 8.88 6.61 8.88zm28.16-12.18c0-3.45-1.9-5.57-5.16-5.57S65 184 65 187.46V201a2 2 0 1 1-4 0v-20.43a2 2 0 1 1 4 0v.73l.09.09a6.87 6.87 0 0 1 6.07-2.94 7.38 7.38 0 0 1 6.61 4.07 8.33 8.33 0 0 1 7.38-4.07c3.71 0 8.37 2.35 8.37 9.14V201a2 2 0 1 1-4 0v-13.54c0-3.45-1.9-5.57-5.16-5.57s-5.12 2.12-5.12 5.57V201a2 2 0 1 1-4 0zm25.12 4.84c0 4.12 2.63 7.34 7.11 7.34 5.3 0 6.66-3.26 8.15-3.26a1.58 1.58 0 0 1 1.45 1.76c0 2-4.93 4.94-9.64 4.94-7.7 0-11-5.93-11-12.32s4.07-12.31 10.82-12.31c6.57 0 10.37 5.93 10.37 11.72 0 1.41-.5 2.13-2.22 2.13zm13.23-3c0-3.44-2-7.42-6.39-7.42-4.93-.18-6.7 3.76-6.84 7.42zm6.88-8.73a2 2 0 1 1 4 0v1l.09.1a8.24 8.24 0 0 1 6.66-3.17c3.71 0 8.37 2.35 8.37 9.14V201a2 2 0 1 1-4 0v-13.18c0-4.21-2.94-5.93-5.57-5.93s-5.57 1.72-5.57 5.93V201a2 2 0 1 1-4 0zm24.99-8.57c.45-.86 1-1.67 2.13-1.67a1.77 1.77 0 0 1 1.81 1.72 3.62 3.62 0 0 1-.5 1.67l-2.54 5c-.45.86-.95 1.68-2.12 1.68a1.78 1.78 0 0 1-1.82-1.72 3.65 3.65 0 0 1 .5-1.68zm11.95 6.45c3.31 0 8 1.76 8 4.25a1.62 1.62 0 0 1-1.81 1.63c-1.72 0-2.4-2.44-6.21-2.44-2.26 0-4.21 1-4.21 3 0 4.21 12.86 3.76 12.86 10.73 0 5-4.3 7.43-8.78 7.43-5.07 0-9.06-2.54-9.06-4.58a1.7 1.7 0 0 1 1.63-1.81c1.77 0 3.22 2.95 7.56 2.95 2.9 0 4.67-1.63 4.67-3.26 0-4.71-12.86-4.44-12.86-11.14.02-4.41 4.18-6.76 8.21-6.76zm22.19-5.71a2 2 0 0 1 2.13-2.17h7.83c9.6 0 14.31 7.42 14.31 15.94 0 9.64-5.12 16.3-13.77 16.3h-8.37a2 2 0 0 1-2.13-2.18zm4 26.62h5.71c7.51 0 10.32-6.29 10.32-12.85S196.64 174 189 174h-5.4zm43.31 1.77a1.85 1.85 0 0 1-1.86 2 1.83 1.83 0 0 1-1.85-2v-1.68h-.09a7.8 7.8 0 0 1-6.57 3.63c-6.79 0-10.59-5.93-10.59-12.32s3.8-12.31 10.59-12.31a8.42 8.42 0 0 1 6.57 3.21h.09v-1.27a1.82 1.82 0 0 1 1.85-1.94 1.85 1.85 0 0 1 1.86 1.94zm-10.37-1.49c4.89 0 6.61-4.8 6.61-8.88s-1.72-8.87-6.61-8.87-6.61 4.8-6.61 8.87 1.72 8.88 6.61 8.88zm13.44-17.3a7.06 7.06 0 0 1-.54-2.22 1.76 1.76 0 0 1 1.81-1.67 2 2 0 0 1 2 1.49l5.53 16.53h.09l5.43-16.53a1.94 1.94 0 0 1 1.9-1.49 1.76 1.76 0 0 1 1.81 1.67 7.06 7.06 0 0 1-.54 2.22l-10.05 28.75a2 2 0 0 1-1.95 1.49 1.76 1.76 0 0 1-1.81-1.67 6.34 6.34 0 0 1 .59-2.22l2.53-6.74zM102.1 67.57A29.54 29.54 0 0 1 138.87 22V11.59a1.83 1.83 0 0 1 1.82-1.81h11.52a47.15 47.15 0 0 0-62.83 70l.5.5 12.44-12.48zm59.07-48.74l3.07-3.07a2 2 0 0 0 .4-1.39 1.9 1.9 0 0 0-1.9-1.73h-19.19a1.84 1.84 0 0 0-1.82 1.81v19.2a2 2 0 0 0 1.74 1.89 1.9 1.9 0 0 0 1.42-.55l3.58-3.58a29.48 29.48 0 0 1-1.21 33.27l3.36 2.79 2.86-3.47a1.86 1.86 0 0 1 2.86 2.37l-2.87 3.45 1.82 1.52a1.85 1.85 0 1 1-2.37 2.85l-1.82-1.49-2.59 3.11a1.86 1.86 0 0 1-2.86-2.37l2.59-3.12-3.36-2.79a29.54 29.54 0 0 1-39.8 2.75l-12.5 12.5a47.09 47.09 0 0 0 30.89 11.53 47.15 47.15 0 0 0 37.68-75.48z" />
</svg>
